<svg height="320" version="1.1" width="320" xmlns="http://www.w3.org/2000/svg" xmlns:xlink="http://www.w3.org/1999/xlink" style="overflow: hidden; position: relative; left: -0.5px; top: -0.796875px;" viewBox="0 0 320 320" preserveAspectRatio="xMidYMid meet" id="main_svg"><svg height="320" version="1.1" width="320" xmlns="http://www.w3.org/2000/svg" xmlns:xlink="http://www.w3.org/1999/xlink" style="overflow: hidden; position: relative;" viewBox="0 0 160 160" preserveAspectRatio="xMidYMid meet" id="imported_svg_layer_1"><rect x="0" y="0" width="160" height="160" rx="0" ry="0" fill="#ffffff" stroke="none" stroke-width="10" opacity="1" fill-opacity="1" transform="matrix(1,0,0,1,0,0)" style="-webkit-tap-highlight-color: rgba(0, 0, 0, 0); opacity: 1; fill-opacity: 1;"></rect><desc style="-webkit-tap-highlight-color: rgba(0, 0, 0, 0);">Created with Logotizer</desc><defs style="-webkit-tap-highlight-color: rgba(0, 0, 0, 0);"><linearGradient id="gradient_atcvbgg4ho56pwb4o3z10p" x1="1.8369701987210297e-16" y1="0" x2="0" y2="1" style="-webkit-tap-highlight-color: rgba(0, 0, 0, 0);"><stop offset="0%" stop-color="#ffffff" stop-opacity="1" style="-webkit-tap-highlight-color: rgba(0, 0, 0, 0);"></stop><stop offset="100%" stop-color="#ffffff" stop-opacity="1" style="-webkit-tap-highlight-color: rgba(0, 0, 0, 0);"></stop></linearGradient></defs></svg><svg height="320" version="1.1" width="320" xmlns="http://www.w3.org/2000/svg" xmlns:xlink="http://www.w3.org/1999/xlink" style="overflow: hidden; position: relative;" viewBox="0 0 160 160" preserveAspectRatio="xMidYMid meet" id="imported_svg_layer_2"><desc style="-webkit-tap-highlight-color: rgba(0, 0, 0, 0);">Created with Logotizer</desc><defs style="-webkit-tap-highlight-color: rgba(0, 0, 0, 0);"></defs><path fill="#ffffff" stroke="#d5d5d5" d="M160,90L80,20L0,90H40V160H120V90H160" stroke-width="2" transform="matrix(1,0,0,1,0,0)" style="-webkit-tap-highlight-color: rgba(0, 0, 0, 0); display: none; cursor: move;"></path></svg><desc style="-webkit-tap-highlight-color: rgba(0, 0, 0, 0);">Created with Logotizer</desc><defs style="-webkit-tap-highlight-color: rgba(0, 0, 0, 0);"></defs><path fill="#3b5998" stroke="none" d="M-108.93,0L-128.85,0L-128.85,-171.33L-33.34,-171.33L-33.34,-153.63L-108.93,-153.63L-108.93,-90.94L-37.91,-90.94L-37.91,-73.24L-108.93,-73.24L-108.93,0ZM128.84,0L106.11,0L12.48,-143.79L11.54,-143.79Q13.41,-118.48,13.41,-97.38L13.41,0L-4.98,0L-4.98,-171.33L17.52,-171.33L110.91,-28.13L111.85,-28.13Q111.62,-31.29,110.8,-48.46Q109.98,-65.63,110.21,-73.01L110.21,-171.33L128.84,-171.33L128.84,0Z" transform="matrix(1,0,0,1,160,244.0234)" style="-webkit-tap-highlight-color: rgba(0, 0, 0, 0);"></path></svg>